<?xml version="1.0" encoding="utf-8"?>
<!-- Generator: Adobe Illustrator 19.0.0, SVG Export Plug-In . SVG Version: 6.00 Build 0)  -->
<svg version="1.2" baseProfile="tiny" id="Layer_1" xmlns="http://www.w3.org/2000/svg" xmlns:xlink="http://www.w3.org/1999/xlink"
	 x="0px" y="0px" viewBox="0 0 256 96" xml:space="preserve">
<g>
	<path id="XMLID_88_" fill="none" d="M255.93,74.85c0,6.42-0.12,12.84,0.07,19.25c0.06,2.23-0.42,2.73-2.75,2.72
		c-23.24-0.11-46.48-0.07-69.73-0.07c-60.1,0-120.19-0.03-180.29,0.08c-2.89,0.01-3.31-0.71-3.3-3.33
		c0.11-30.2,0.1-60.39,0.01-90.59c-0.01-2.33,0.5-2.91,2.94-2.91C86.34,0.08,169.8,0.08,253.27,0c2.41,0,2.72,0.61,2.71,2.75
		c-0.09,22.52-0.06,45.04-0.06,67.56c-2.31-0.35-4.11-1.85-6.16-2.77c-2.03-0.91-1.82-3.14-1.83-5.02
		c-0.05-10.29-0.02-20.59-0.02-30.88c0-2.39,0.05-4.77-1.32-6.93c-0.66-1.04-0.64-2.18,0.02-3.22c1.22-1.91,1.17-4.03,1.33-6.17
		c0.3-4.13-0.11-7.57-5.43-8.09c-1.26-0.12-2.31-1.21-3.06-2.18c-2.54-3.26-5.99-3.48-9.68-3.1c-0.38,0.04-0.76,0.08-1.15,0.12
		c-7.61,0.95-7.68,0.96-5.93,8.28c0.72,3-1.57,3.26-3.37,4.04c-5.18,2.23-6.38,8.82-2.34,12.86c2.24,2.19,1,4.77,0.8,7.27
		c0.77,0.07,1.31-0.6,2.05-0.56c1.35-0.05,2.66-0.03,3.51,1.26c0.83,2.05,0.5,4.19,0.5,6.29c0.04,8.85,0.05,17.7-0.01,26.55
		c-0.01,1.68,0.39,3.57-1.42,4.76c-2.11-2.08-3.5,1.14-5.39,0.72c-3.37,0.33-4.59-1.41-4.6-4.47c-0.01-4.39,0.05-8.78-0.03-13.16
		c-0.17-8.63-4.66-13.65-13.35-15.34c-8.86-1.73-17.57-0.65-26.26,1.04c-2.3-0.02-2.08,2.3-3.22,3.35c-1.4,0.75-2.75,0.39-4.1-0.13
		c-7.97-4.17-16.34-6.28-25.42-4.75c-7.43,1.25-13.29,4.87-17.48,11.03c-0.43,0.26,0.18,0.01-0.25,0.28
		c-0.8,0.49-2.45,0.7-0.79,2.09c-0.13,1.47-0.35,2.92-0.65,4.36c-0.88,1.61,0.61,4.24-2.23,5c-0.95-0.97-0.92-2.21-0.98-3.42
		c0-1.31,0.17-2.66-0.71-3.82c-2.34-6.98-6.63-12.13-14.02-14.41c-7.9-2.44-15.71-2.25-23.31,1.04
		c-6.83,2.96-10.31,8.43-11.42,15.48c-0.37,2.36-0.49,4.76-1.47,7c-0.37,0.56-0.91,0.89-1.56,1.06c-5.03,0.69-10.09,0.11-15.11,0.32
		c-1.8-0.01-1.38,1.34-1.53,2.38c-0.26,1.8-0.08,3.8-2.21,4.78c-1.53,0.34-3.03,0.51-4.17-0.89c-0.31-11.26,0-22.52-0.16-32.89
		c-0.23-1.39-0.91-0.74-0.44-0.95c0.21-0.09,0.33-0.03,0.34,0.18c0.23,10.54,0.04,21.08,0.1,31.63c0,0.79-0.08,1.53-1.12,1.62
		c-1.2-0.73-1.74-1.9-1.74-3.18c-0.01-10.76-0.66-21.54,0.34-32.29c0.63-2.27,2.49-2.79,4.49-2.65c3.02,0.2,3.86-1.26,3.54-3.87
		c-0.37-3.06,1.28-6.63-2.35-8.86c-1.12-2.1-0.3-4.61-1.47-6.7c-0.04-0.18-0.08-0.37-0.12-0.55c-0.02-0.37,0.05-0.72,0.22-1.05
		c3.38-2.7,3.37-2.76-0.43-4.69c-0.71-1.08-2.15,0.24-2.86-0.82c-1-0.28-1.64-2.29-3.04-0.59c-2.42,2.82,1.19,4.35,1.46,6.6
		c-1.7,3.15-4.06,3.03-6.75,1.35c-1.86-0.83-2.51,0.54-3.23,1.73c-1.14,1.91-2.56,3.15-5.01,2.22c-1.66-1.17-3.39-2.94-4.15,0.77
		c-0.41,2.01-2.13,1.26-3.39,1.28c-1.57,0.03-3.16-0.1-2.89,2.21c0.04,2.39,0,4.78,0.08,7.16c0.05,1.39,0.15,2.79,1.5,3.68
		c1.95,1.28,2.27,3.23,2.28,5.29c0.06,9.4,0.05,18.81,0,28.21c-0.01,1.25-0.07,2.52-0.83,3.61c-2.76,0.36-1.41-1.77-1.42-2.62
		c-0.12-8.14-0.06-16.27-0.1-24.41c0-0.66,0.5-1.46,0.01-1.81c-0.01,8.85,0.06,17.91-0.05,26.97c-0.03,2.48-2.62,3.57-3.7,5.51
		c-1.89,1.63-0.16,4.01-0.86,5.26c0.26-1.09-0.23-2.84,0.12-4.51c2.48-0.68,1.84,1.35,1.95,2.37c0.29,2.74-0.25,5.5-0.13,8.26
		c0.07,1.58,0.77,0.42,1.24,0.3c16.48-0.4,32.96-0.44,49.43,0.01c0.84,0.04,1.65,0.33,2.66,0.39c-0.17-0.96-1.09-1.57-1.09-2.52
		c0-5.67-0.74-11.34,0.37-16.98c1.75-0.43,1.75-0.43,2.71,2.65c0.78,2.28,1.49,4.58,2.18,6.89c-0.22,1.96,1.23,2.56,2.69,3.14
		c7.77,6.94,17.05,8.14,26.91,6.5c7.71-1.28,13.35-5.44,16.4-12.67c0.39-0.92,0.77-1.87,1.66-2.48c1.26-0.52,1.89,0.3,2.16,1.22
		c0.32,1.11,1.19,0.46,1.74,0.74c0.48,0.23,0.86,0.57,1.08,1.03c3.98,8.13,10.86,12.03,19.75,13.01c3.38,0.47,6.75,0.68,10.11-0.16
		c3.66-1,7.34-1.92,11.17-2.06c0.54-0.7,0.2,1.77,1.36,0.26c1.17-1.53,1.29-4.09,3.89-4.42c2.92,2.34,5.3,5.43,9.53,5.83
		c4.92,0.47,9.39-0.3,13.28-3.49c1.85-1.51,3.73-2.68,4.57,0.95c0.46,1.95,2.16,1.87,3.69,1.88c5.87,0.05,11.74,0,17.62,0.01
		c0.65-0.01,1.3-0.01,1.96-0.01c7.02,0.01,14.04,0.01,21.07,0c4.9-0.01,4.9-0.02,5.11-4.64c0.04-1,0.02-2.01,0.47-2.94
		c0.31-0.57,0.8-1.06,1.42-1.08C250.52,77.12,253.19,75.86,255.93,74.85z"/>
	<path id="XMLID_87_" fill="none" d="M255.93,74.85c-2.09,3.85-5.79,2.98-9.18,3.02c-1.46-1.22-0.88-3.08-1.53-4.56
		c-0.13-0.42-0.21-0.83-0.3-1.26c-0.8-2.16-0.86-4.41-0.87-6.67c-0.02-14.15,0.08-28.3-0.05-42.44c-0.04-0.37-0.12-0.74-0.26-1.09
		c-0.26-1.1-1.37-0.83-2.08-1.21c-0.63-0.34-1.48-0.76-0.96-1.61c0.38-0.62,1.2-0.58,1.41-0.49c-0.49-0.1-1.62,0.23-2.56-0.34
		c-0.49-0.29-0.86-0.68-1.12-1.18c-0.23-0.5-0.38-1.02-0.5-1.55c-0.22-0.86-0.4-1.74-0.29-2.63c0.38-1.97-0.71-3.04-2.39-3.78
		c-4.21-1.88-8.95-0.38-10.58,3.38c0.01,0.8,0.27,1.59,0.18,2.4c-0.17,0.93-0.06,1.89-0.35,2.8c-0.5,0.81-0.15,1.49,0.34,2.16
		c0.71,1.22,0.09,2.08-1.06,2.12c-3.44,0.12-4.07,2.16-3.96,4.93c0.03,0.73-0.26,1.45-0.82,2.01c-0.42,0.17-0.79,0.09-1.11-0.22
		c-0.29-1.69,0.02-3.44-0.28-5.12c0.26,1.51,0.36,3.01-0.24,4.5c-1.57,0.14-2.8-0.45-3.52-1.81c-2.24-4.24,0.65-11.74,5.38-12.92
		c3.05-0.76,3.41-1.52,1.8-4.04c-0.83-1.3-0.97-3.09-1.17-4.69c-0.21-1.66,0.96-2.65,2.45-2.86c2.9-0.42,5.83-0.67,8.75-0.85
		c3.4-0.21,6.69-0.5,8.79,3.32c1.04,1.88,3.31,3,5.89,2.75c1.44-0.14,2.84,0.76,2.91,1.99c0.22,4.3,1.48,8.75-0.99,12.83
		c-0.47,0.78-1.38,1.44-0.46,2.22c2.33,1.97,1.76,4.57,1.77,7.03c0.03,10.82,0.04,21.64-0.01,32.46c-0.01,2.3,0.3,4,3.25,3.91
		c2.01-0.06,2.48,1.97,3.71,2.97C255.93,71.82,255.93,73.33,255.93,74.85z"/>
	<path id="XMLID_86_" fill="#FFFFFF" d="M16.18,71.07c0.06-11.29,0.11-22.58,0.2-33.87c0.01-1.44-0.18-2.56-2.04-2.28
		c-2.06,0.32-2.27-0.8-2.21-2.42c0.13-3.76,0.14-7.52,0.2-11.28c1.31-1.06,2.87-0.69,4.35-0.72c1.41-0.04,2.8,0.58,3.41-1.69
		c0.45-1.64,2.3-1.62,3.8-0.67c2.84,0.84,3.71-0.97,4.61-3.07c1.08-2.54,1.2-2.49,3.91-1.49c1.31,2.72,3.32,2.45,5.69,1.45
		c1.33-0.56,2.35-1.43,3.42-2.29c1.05-0.35,1.76,0.26,2.49,0.84l-0.12,0.19c0.57,0.55,0.64,1.34,0.86,2.01
		c0.49,1.54,0.91,3.39-1.86,1.95c-1.14-0.59-1.65,0.54-1.61,0.77c0.11,0.64,0.69-0.06,1.1,0.04c1.35,0.3,2.24,1.07,2.73,2.32
		c5.67,3.54,2.07,8.68,2.52,13.12c-1.45-1.63-0.75-3.55-0.98-5.13c-0.2,0.46-0.09,1.22,0.01,1.9c0.43,2.92-0.66,4.16-3.75,3.72
		c-1.29-0.18-2.91-0.35-2.69,1.82c0.07,9.97,0.13,19.95,0.23,29.92c0.02,1.86,0.18,3.72,0.28,5.58c0.36,0.66,1.35,0.12,1.67,0.84
		c1.55,0.34,3.09,0.31,4.64,0.01c2.04-2.03,0.38-4.89,1.63-7.09c3.46-0.3,6.92-0.14,10.38-0.11c4.87,0.03,7.02,3.48,4.98,7.87
		c-0.41,0.89-1.29,1.62-0.89,2.74c-0.07,0.24-0.09,0.35-0.07,0.36c0.02,0.01,0.13-0.09,0.12-0.28c-0.05-0.91-0.08-1.96,1.15-1.93
		c1.09,0.03,0.75,1.11,0.78,1.78c0.06,1.38,0.03,2.76,0.02,4.15c-0.04,3.77-1.63,5.52-5.51,5.54c-14.62,0.09-29.25,0.05-43.88,0.02
		c-1.28,0-2.59,0.03-3.59-1c-0.63-3.47-0.01-6.96-0.33-10.46C11.55,71.33,14.47,71.81,16.18,71.07z"/>
	<path id="XMLID_85_" fill="#FFFFFF" d="M118.61,59.3c0.05,1.15,0.09,2.3,0.14,3.45c1.79,2.97,0.67,5.66-0.82,8.31
		c-7.46,18.6-29.8,22.98-46.18,9.04c-1.34-0.71-2.05-1.83-2.26-3.29c-1.69-1.85-1.55-4.35-2.41-6.5c-0.75-2.03-0.36-4.18-0.7-6.25
		c0.18-1.74,0.36-3.48,0.55-5.22c1.05-9.85,6.66-16.46,16.36-19.02c6.69-1.77,13.43-1.65,20.04,0.39
		c7.65,2.36,12.19,7.66,14.36,15.09C119.02,56.41,117.82,58.07,118.61,59.3z"/>
	<path id="XMLID_84_" fill="#FFFFFF" d="M217.21,86.87c-5.89-0.04-11.79-0.35-17.66-0.03c-3.84,0.21-5.55-0.74-4.24-5.85
		c-4.58,4.43-8.78,7.1-14.44,6.87c-5.58-0.22-9.88-2.16-12.6-7.06c-4.02-5.42-1.76-14.27,4.85-18.16c6.44-3.78,13.41-5.51,20.95-4.4
		c0.54,0.25,1.1,0.5,1.43,1.14c0.06-1.03-1.02-0.94-1.37-1.5c-2.01-2.5-4.69-3.14-7.83-3.2c-4.54-0.09-8.87,1.27-13.34,1.5
		c-2.67-0.24-4.05-1.31-2.65-4.09c0.95-1.88,0.6-3.81,0.34-5.75c-0.17-0.33-0.3-0.67-0.42-1.02c-0.26-1.78-1-3.73,1.67-4.46
		c9.94-2.42,19.95-3.28,29.98-0.73c7.06,1.8,11.15,6.64,11.6,13.75c0.33,5.26,0.32,10.55,0.16,15.81c-0.08,2.74,0.8,3.7,3.5,2.97
		C219.32,77.39,219.18,82.12,217.21,86.87z"/>
	<path id="XMLID_83_" fill="#FFFFFF" d="M164.12,85.22c-3.83,0.83-7.66,1.65-11.5,2.48c-3.59,0.67-7.19,0.42-10.79,0.13
		c-9.84-0.83-16.79-5.61-20.72-14.52c-1.46-1.41-1.99-3.21-1.84-5.1c0.29-3.57,0.42-7.15,0.84-10.71c0.82-1.31-0.56-3.13,1.02-4.27
		c0.2-0.59,0.09-1.28,0.56-1.79c4.28-8.33,11.7-11.87,20.71-12.62c8.25-0.69,16.08,0.9,23.27,5.09c2.29,4.95,1.14,10.1,0.83,15.17
		c-0.11,1.8-1.8,2.32-3.42,2.44c-3.07,0.22-6.15,0.17-9.23,0.03c-2.22-0.1-3.5-1.29-4.2-3.27c-0.82-2.32-2.49-3.41-5.01-3.16
		c-0.98,0.12-1.83,0.48-2.41,1.32c-0.21,0.32-0.41,0.64-0.6,0.97c-0.94,2.72,0.66,5.96-1.8,8.89c-1.32-2.99-0.27-5.73-0.71-7.66
		c-0.22,3.86-0.46,8.42,3.89,11.48c4.77,2.2,9.78,1.22,14.72,1.04c1.27-0.04,2.52-0.34,3.81-0.37c2.98-0.07,4.71,1.31,4.49,4.26
		C165.77,78.48,167.52,82.33,164.12,85.22z"/>
	<path id="XMLID_82_" fill="#FDFEFF" d="M218.93,28.77c0.06-0.99,0.28-2,0.17-2.97c-0.36-3.14,0.02-5.24,4.23-4.7
		c2.66,0.34,0.25-0.99,0.24-1.55c-0.87-2.13,1.16-1.84,2.08-2.14c1.56-0.51,3.26-0.17,4.9-0.31c1.1-0.16,2.15-0.57,3.27-0.61
		c2.35-0.27,4.45,0.25,6.19,1.89c0.17,0.59,0,1.57,0.55,1.71c3.82,0.96,3.34,3.92,3.34,6.65c0.01,13.67,0.02,27.34-0.01,41.02
		c0,1.95,0.1,3.76,1.98,4.94c0.05,0.17,0.09,0.35,0.11,0.54c0.49,3.74,0.36,7.48,0.19,11.23c-0.06,1.48-0.61,2.15-2.29,2.13
		c-7.41-0.08-14.81-0.05-22.22-0.02c-1.44,0-2.72-0.33-2.78-1.88c-0.15-3.81-1.15-7.7,0.75-11.39c2.7-0.1,3.69-1.21,3.63-4.09
		c-0.22-10.37-0.07-20.75-0.11-31.13c0-1.07,0.47-2.26-0.51-3.2c-1.18-0.04-2.36-0.08-3.54-0.12c-0.6-0.38-0.88-0.94-0.92-1.63
		C218.27,31.64,217.8,30.07,218.93,28.77z"/>
	<path id="XMLID_81_" fill="none" d="M141.21,56.01c0.19,0,0.37-0.03,0.55-0.08c1.67,0.63,0.93-1.15,1.59-1.53
		c4.73-1.52,6.64-0.56,7.41,4.16c0.27,1.66,0.84,2.16,2.37,1.97c0.13-0.01,0.25,0.01,0.38,0c3.92-0.13,8.94,1.54,11.44-0.63
		c2.37-2.06,0.51-7.06,0.7-10.76c0.09-1.74,0.02-3.49,0.02-5.24c1.2,0.64,2.48,0.84,3.82,0.74c1.85,2.49,1.13,5.14,0.58,7.81
		c-0.44,2.17-0.19,3.9,2.84,2.85c5.28-0.78,10.5-2.06,15.93-1.55c3.02,0.28,5.52,1.13,6.19,4.48c-0.04,0.15-0.09,0.31-0.13,0.46
		c-5.12,0.07-10.21,0.47-15.15,1.91c-10.17,2.98-13.7,9.2-11.49,20.2c-1.09,1.73-2,3.6-3.32,5.13c-0.86,1.01-0.59-0.4-0.83-0.71
		c2.11-4.14,0.6-8.55,0.84-12.82c0.08-1.39-1.63-0.68-2.51-0.62c-4.21,0.29-8.4,0.71-12.61,1.03c-2.74,0.21-5.35-0.16-7.62-1.87
		c-1.07-0.46-1.5-1.4-1.49-2.41C140.75,64.36,140.17,60.15,141.21,56.01z"/>
	<path id="XMLID_80_" fill="#FAFAFA" d="M12.34,84.66c15.38,0,30.75,0.01,46.13-0.02c1.37,0,3.47,0.67,3.99-0.4
		c0.91-1.9,3.52-3.26,2.35-6.06c-0.43-1.02-0.17-2.32-0.25-3.92c-1.49,1.54-0.21,2.76-0.56,3.89c-0.3,0.97,0.49,2.23-1.06,3.2
		c-1.06-3.23-0.54-6.22,0.37-9.14c1.06-3.38-0.79-6.31-4.37-6.41c-3.46-0.1-6.92-0.03-10.38-0.03c-0.2-0.17-0.26-0.34-0.2-0.5
		c0.07-0.17,0.13-0.25,0.2-0.25c5.58,0.03,11.15,0.06,16.73,0.09c0.71,0.36,0.66,0.86,0.28,1.43c0,6.29,0,12.59,0,18.88
		c0.33,0.83-0.2,1.17-0.85,1.46c-17.45-0.03-34.89-0.06-52.34-0.09c-0.15-0.58,0.08-0.9,0.68-0.95c15.97-0.07,31.94,0.01,47.91-0.04
		c-16.04-0.03-32.08,0.04-48.12-0.05C12.28,85.57,12.11,85.21,12.34,84.66z"/>
	<path id="XMLID_79_" fill="none" d="M12.49,86.17c-0.08,0.2-0.11,0.4-0.1,0.62c-1.62,0.16-1-0.9-1.09-1.73
		c-0.35-3.4,1.25-6.89-0.52-10.21l0,0c-0.1-1.19,0.13-2.36,1.18-3.01c2.95-1.82,2.73-4.59,2.7-7.45
		c-0.08-8.07-0.03-16.14,0.74-24.21c0,8.99-0.02,17.99,0.02,26.98c0.01,1.32-0.51,2.79,0.75,3.9c0.31,1.01,0.11,1.9-1.12,1.72
		c-2.91-0.42-3.02,1.24-2.92,3.32c0.13,2.85,0.14,5.7,0.2,8.56c0,0.25,0,0.5,0,0.76c0.25,0.13,0.35,0.28,0.31,0.46
		C12.61,86.07,12.55,86.17,12.49,86.17z"/>
	<path id="XMLID_78_" fill="#E6E6E5" d="M219.88,73.58c-0.04,3.26-0.03,6.52-0.13,9.78c-0.05,1.78,0.35,2.82,2.51,2.79
		c7.04-0.09,14.09-0.13,21.14,0.02c2.44,0.05,2.33-1.51,2.4-2.89c0.16-3.35,0.13-6.71,0.17-10.07c1.36,1.37,0.16,3.15,0.78,4.65
		c-0.05,0.25-0.11,0.49-0.14,0.74c-0.32,2.68,1.27,6.26-0.75,7.82c-1.67,1.29-5.14,0.41-7.81,0.42c-6.26,0.01-12.52-0.02-18.78-0.03
		c-1.7-1-1.11-2.67-1.06-4.05c0.1-3.07-0.59-6.19,0.48-9.21C219.09,73.17,219.49,73.18,219.88,73.58z"/>
	<path id="XMLID_77_" fill="#E6E6E5" d="M222.64,34.87c1.47,0.82,0.92,2.23,0.93,3.39c0.04,10.43-0.08,20.87,0.09,31.29
		c0.05,2.89-0.74,4.28-3.78,4.02c-0.07-0.11-0.15-0.21-0.24-0.3c0.07-1.27,0.73-1.21,1.6-0.69c1.65,0.46,1.6-0.63,1.6-1.68
		C222.77,58.89,222.71,46.88,222.64,34.87z"/>
	<path id="XMLID_76_" fill="#F7F8F8" d="M40.2,36.29c-1.12-1.38-0.6-2.68,0.96-2.34c5.23,1.15,5.45-1.76,5.09-5.42
		c-0.06-0.6-0.01-1.21,0.68-1.87c0,2.2,0,4.41,0,6.61c0.28-0.01,0.56-0.01,0.83-0.02c0-2.83-0.05-5.66,0.02-8.49
		c0.03-1.1-0.39-1.53-1.46-1.73c-1.4-0.26-1.75-1.31-1.64-2.57c0.27-0.27,0.54-0.28,0.8,0c2.24,0.64,3.55,1.82,2.99,4.37
		c-0.21,0.96-0.02,2-0.03,3c-0.02,2.13,0.67,4.66-0.28,6.27c-1.12,1.9-3.95,0.6-6.03,0.76C41.06,34.96,40.56,35.43,40.2,36.29z"/>
	<path id="XMLID_75_" fill="none" d="M42.38,72.63c-0.78,0.15-1.75,0.66-1.67-0.84c1.55-1.14,0.87-2.79,0.87-4.2
		c0.06-10.14,0.03-20.29,0.8-30.44C42.38,48.98,42.38,60.81,42.38,72.63z"/>
	<path id="XMLID_74_" fill="none" d="M120.13,57.48c-0.34,5.31-0.27,10.6,1,15.81c-2.45,1.17-1.83-1.89-3.19-2.22
		c0.27-2.77,0.54-5.54,0.82-8.31C120.32,61.27,118.59,58.97,120.13,57.48z"/>
	<path id="XMLID_73_" fill="none" d="M221.24,72.59c-0.53,0.23-1.07,0.46-1.6,0.69c-1.13,4.49-0.47,9.02-0.37,13.54
		c-0.68,0.02-1.37,0.03-2.05,0.05c0.48-4.74,0.6-9.47-0.07-14.2c1.15-0.11,2.08-0.7,3.07-1.24
		C221.96,70.47,220.89,72.19,221.24,72.59z"/>
	<path id="XMLID_72_" fill="none" d="M23.89,18.14c-1.6,0.42-3.95-0.58-4.07,2.52c-0.04,1-1.7,0.46-2.61,0.51
		c-1.62,0.1-3.26,0.04-4.89,0.04c0.76-2.59,2.93-1.16,4.48-1.47c0.95-0.19,2.66,1.11,2.02-1.51c-0.31-1.27,1.51-2.23,2.49-2.34
		C22.37,15.76,23.7,16.63,23.89,18.14z"/>
	<path id="XMLID_71_" fill="#F9F9FA" d="M172.93,55.3c-2.31,1.54-3.52,1.46-3.33-1.79c0.18-2.95-0.05-5.91-0.1-8.87
		c0.65-1.35-1.1-4.16,2.4-3.78c-1.82,1.26-1.84,2.81-0.77,4.53c-0.93,1.44,0.02,3.1-0.3,3.89c0.16-0.81-0.48-2.43,0.3-3.89
		c0.96,2.49,1.49,4.81-0.31,7.37C169.38,54.81,171.3,55.16,172.93,55.3z"/>
	<path id="XMLID_70_" fill="#F3F3F3" d="M43.17,7.64c2.13-0.24,4.4,0.33,4.57,2.41c0.13,1.52-1.41,3.33-3.79,2.99
		c-1-0.32-1.71-0.95-2.12-1.91C41.47,9.68,41.54,8.37,43.17,7.64z"/>
	<path id="XMLID_69_" fill="#F7F8F8" d="M45.51,20.46c-0.27,0-0.54,0-0.8,0c-1.03,0.09-1.44-1.1-2.25-1.16
		c-1.08-0.09-2.49,0.65-3.06-0.54c-0.32-0.66,1.79-0.41,1.72-2.06c-0.03-0.71,1.93-0.19,2.82,0.63c0.11,0.1,0.38,0.04,0.68,0.07
		c-0.25-1.25-0.48-2.44-0.72-3.63C46.03,15.63,45.35,18.14,45.51,20.46z"/>
	<path id="XMLID_68_" fill="#171617" d="M43.17,7.64c-0.92,1.12-0.88,2.43-0.82,3.75c-0.4,0.47-0.93,0.66-1.54,0.7
		c-1.04,0.01-1.9-0.39-2.65-1.08c-1.09-1.16-1.13-2.41-0.34-3.73c0.21-0.33,0.5-0.6,0.85-0.79c0.8-0.28,1.54-0.14,2.2,0.38
		C41.54,7.41,42.64,6.71,43.17,7.64z"/>
	<path id="XMLID_67_" fill="#F7F8F8" d="M41.68,12.74c-0.33,3.69-4.04,2.66-5.98,4.11c-0.9-1.28-3.93-0.52-3.3-3.28
		c2.36,2.6,4.3,1.52,6.12-0.66c0.56-0.74,1.39-0.96,2.26-1.1C41.36,11.87,41.77,12.07,41.68,12.74z"/>
	<path id="XMLID_66_" fill="#FFFFFF" d="M41.03,12.1c-0.83,0.27-1.67,0.54-2.5,0.81c-3.88-2.71-4.02-3.33-1.48-6.79
		c0.83-0.34,1.26,0.09,1.56,0.77c-0.1,0.23-0.2,0.47-0.31,0.7c-1.17,1.22-1.55,2.3,0.57,2.91c0.54,0.51,1.07,1.04,1.92,0.97
		c0.25,0.07,0.37,0.18,0.36,0.34C41.12,12.01,41.09,12.1,41.03,12.1z"/>
	<path id="XMLID_65_" fill="#070707" d="M218.94,33.3c0.05,0.48,0.11,0.96,0.16,1.44c-0.79,0.16-1,1.61-2.18,0.93
		c-1.32-0.77,0.1-1.5,0.2-2.12c0.3-1.86,0.18-3.69,0.26-5.54c0-1.47,0-2.93,0-4.4c0.26-0.01,0.51-0.01,0.77-0.02
		c0,1.72,0,3.44,0,5.17C219.13,30.16,217.91,31.92,218.94,33.3z"/>
	<path id="XMLID_64_" fill="#050505" d="M10.21,32.37c0-3.45,0-6.91,0-10.36c0.13,0,0.26,0,0.39,0c0,3.45,0,6.91,0,10.36
		C10.47,32.37,10.34,32.37,10.21,32.37z"/>
	<path id="XMLID_63_" fill="none" d="M48.56,65.03c0,0.25,0,0.5,0,0.75c-0.09,1.72-0.15,3.44-0.27,5.16
		c-0.06,0.8,0.18,1.88-1.27,1.7c0.2-2.19,1.05-4.34,0.3-6.61C47.07,65.25,47.91,65.09,48.56,65.03z"/>
	<path id="XMLID_62_" fill="#0F0F0F" d="M141.84,87.82c3.6-0.04,7.19-0.08,10.79-0.13C149.05,88.97,145.45,88.84,141.84,87.82z"/>
	<path id="XMLID_61_" fill="none" d="M9.02,73.5c0,2.78,0,5.56,0,8.34c-0.17,0-0.33,0-0.5,0c0-2.77,0-5.55,0-8.32
		C8.69,73.51,8.86,73.51,9.02,73.5z"/>
	<path id="XMLID_60_" fill="#FFFFFF" d="M38.59,6.89c-0.52-0.26-1.04-0.51-1.56-0.77c-1.52-1.63,0.18-1.94,0.95-1.55
		c1.04,0.53,2.57,0.8,2.89,2.31C40.11,6.88,39.35,6.88,38.59,6.89z"/>
	<path id="XMLID_59_" fill="#090909" d="M65.58,66.55c-0.09-0.48-0.19-0.95-0.28-1.43c0.36-0.35,0.73-0.7,1.09-1.05
		c0.23,2.08,0.46,4.17,0.7,6.25C65.59,69.44,66.92,67.48,65.58,66.55z"/>
	<path id="XMLID_58_" fill="none" d="M113.93,41.26c1.01,0.83,2.02,1.67,3.34,2.76C114.96,43.62,114.96,43.62,113.93,41.26z"/>
	<path id="XMLID_57_" fill="#070707	" d="M46.61,15.72c1.26,0.06,1.98,0.54,1.8,1.78c-0.07,0.47-0.64,1.12-0.94,0.83
		C46.78,17.69,46.49,16.75,46.61,15.72z"/>
	<path id="XMLID_56_" fill="#050505" d="M10.78,74.85c0,1.95,0,3.9,0,5.85C10.31,78.73,9.27,76.74,10.78,74.85
		C10.78,74.85,10.78,74.85,10.78,74.85z"/>
	<path id="XMLID_55_" fill="#747474" d="M41.03,12.1c-0.05-0.22-0.13-0.43-0.25-0.63c0.53-0.02,1.05-0.05,1.58-0.07
		c0.86,0.25,1.33,0.85,1.59,1.65c0.15,0.16,0.17,0.34,0.06,0.53c-0.96,0.22-1.57-0.5-2.33-0.84C41.46,12.53,41.24,12.31,41.03,12.1z
		"/>
	<path id="XMLID_54_" fill="#090909" d="M69.5,76.81c0.75,1.1,1.51,2.19,2.26,3.29C69.79,79.81,68.38,79.15,69.5,76.81z"/>
	<path id="XMLID_53_" fill="#050505" d="M215.68,64.48c0,1.42,0,2.84,0,4.25C214.86,67.29,215.04,65.82,215.68,64.48z"/>
	<path id="XMLID_52_" fill="#090909" d="M32.59,10.86c-1.76-0.14-2.9-0.23-4.05-0.32C29.75,9.87,30.93,9.56,32.59,10.86z"/>
	<path id="XMLID_51_" fill="#070707" d="M98.15,37.58c-0.61,0.01-0.95-0.33-0.9-0.87c0.02-0.29,0.29-0.71,0.56-0.81
		c0.54-0.21,0.99,0.12,1.12,0.64C99.05,37.1,98.66,37.42,98.15,37.58z"/>
	<path id="XMLID_50_" fill="#030303" d="M64.73,86.88c0.28-0.49,0.56-0.97,0.85-1.46c0.55,0.52,2.06,0.47,1.6,1.46
		C66.81,87.66,65.57,87.52,64.73,86.88z"/>
	<path id="XMLID_49_" fill="#050505" d="M110.77,40.64c-0.32-0.1-0.72-0.17-0.72-0.24c-0.02-0.6,0.45-0.85,0.94-0.92
		c0.28-0.04,0.6,0.19,0.91,0.3C111.51,40.08,111.12,40.38,110.77,40.64z"/>
	<path id="XMLID_48_" fill="#090909" d="M121.7,51.43c0.18,0.71,0.08,1.33-0.56,1.79c-0.45-0.41-1.35-0.96-1.27-1.22
		C120.11,51.18,121.04,51.52,121.7,51.43z"/>
	<path id="XMLID_47_" fill="#090909" d="M118.61,59.3c-0.31-1.34-0.61-2.67-0.92-4.01C119.42,56.32,118.54,57.92,118.61,59.3z"/>
	<path id="XMLID_46_" fill="#050505" d="M214.92,43.13c-1.06-0.12-1.64-0.08-1.41-0.53c0.19-0.36,0.8-0.55,1.26-0.73
		c0.12-0.05,0.55,0.26,0.53,0.31C215.14,42.65,214.92,43.11,214.92,43.13z"/>
	<path id="XMLID_45_" fill="#050505" d="M245.86,72.69c-2.75,0.78-3.14-0.52-3.13-2.91c0.1-14.47-0.01-28.94,0.08-43.42
		c0.02-3.33,0.39-6.5-4.75-5.15c0.14-1.44,2.03-1.59,1.63-2.99c-0.25-0.18-0.32-0.36-0.23-0.52c0.09-0.16,0.18-0.24,0.27-0.24
		c1.3,0.36,2.61,0.72,3.92,1.08c-0.61,0.86-1.7,0.07-2.4,0.66c0.1,2,3.06-0.09,3.11,2.04c-0.76,1.3-0.37,2.71-0.38,4.07
		c-0.03,13.09-0.01,26.18-0.03,39.27c0,1.24,0.27,2.51,0.03,3.09c-0.06-0.35,0.01-1.33,0.01-2.33c-0.01-13.59-0.01-27.19,0.01-40.78
		c0-1.11-0.29-2.27,0.36-3.32c1.26,1.12,0.74,2.59,0.75,3.91c0.04,11.95,0.01,23.89,0.03,35.84
		C245.15,64.89,244.85,68.83,245.86,72.69z"/>
	<path id="XMLID_44_" fill="#F7F8F8" d="M223.66,12.84c-0.74-1.39,0.05-2.37,0.95-3.28c2.96-2.98,10.27-3.08,13.28-0.12
		c1.01,0.99,2.37,2.16,0.47,3.61c-1,0.65-2.09,0.98-3.29,0.91c-2.74-0.01-5.48,0.01-8.22-0.01
		C225.64,13.99,224.59,13.58,223.66,12.84z"/>
	<path id="XMLID_43_" fill="#9F9F9F" d="M235.14,13.06c1.07,0,2.15-0.01,3.22-0.01c0.16,0.73,0.33,1.45,0.49,2.18
		c-2.4,1.58-5.17,0.79-7.76,1.17c-1-0.35-0.92-1.06-0.65-1.84C231.52,12.58,233.77,14.16,235.14,13.06z"/>
	<path id="XMLID_42_" fill="#EDEDED" d="M230.46,16.01c2.71-1.15,5.55-1.05,8.4-0.78c0.31,0.49,0.25,0.96-0.09,1.41
		c-1.56,0.87-3.26,0.21-4.88,0.42c-1.03-0.15-2.06,0.37-3.09-0.02C230.39,16.79,230.27,16.44,230.46,16.01z"/>
	<path id="XMLID_41_" fill="#EDEDED" d="M231.39,18.06c-2.52,0.93-5.67-1.33-7.83,1.48c-1.29-1.05-1.32-1.82,0.5-2.18
		c0.86-0.71,1.92-0.91,2.97-1.18c0.35-0.1,0.71-0.15,1.07-0.18c0.55-0.03,1.08,0.07,1.57,0.32
		C230.04,17.09,231.43,16.9,231.39,18.06z"/>
	<path id="XMLID_40_" fill="#9B9B9B" d="M228.11,16.67l-0.32,0l-0.32-0.07c-1.19-0.37-2.61-0.3-3.33-1.61
		c-0.16-0.72-0.32-1.43-0.48-2.15c0.98,0.08,1.96,0.15,2.94,0.23c0.52,0.18,1.02,0.39,1.45,0.73
		C228.81,14.74,229.15,15.69,228.11,16.67z"/>
	<path id="XMLID_39_" fill="#F6F6F6" d="M224.14,14.99c1.21,0.35,3.07-0.61,3.33,1.61c-0.91,1.22-2.21,0.74-3.4,0.76
		C223.93,16.56,222.92,15.74,224.14,14.99z"/>
	<path id="XMLID_38_" fill="#BDBDBD" d="M233.56,16.84c1.74-0.07,3.47-0.14,5.21-0.21c0.02,0.62,0.5,0.7,0.97,0.81
		c-0.01,0.26-0.03,0.51-0.04,0.77c-1.98-0.73-4.07-0.66-6.13-0.8c-0.25-0.12-0.33-0.25-0.25-0.38
		C233.4,16.91,233.48,16.84,233.56,16.84z"/>
	<path id="XMLID_37_" fill="#010101" d="M218.94,33.3c-1.41-1.32-0.53-3.02-0.78-4.53c0.26,0,0.52,0,0.78,0
		C218.93,30.28,218.93,31.79,218.94,33.3z"/>
	<path id="XMLID_36_" fill="#FAFAFA" d="M38.54,69.9c0-9.85,0-19.69,0-29.54c0.14,0,0.29,0,0.43,0c0,9.85,0,19.69,0,29.54
		C38.82,69.9,38.68,69.9,38.54,69.9z"/>
	<path id="XMLID_35_" fill="#F7F8F8" d="M37.35,22.7c-1.07-0.02-2.17-0.17-2-0.95c0.22-1,1.07-1.92,2.36-1.96
		c0.83-0.03,1.52,0.28,1.43,1.25C39.04,22.24,38.12,22.57,37.35,22.7z"/>
	<path id="XMLID_34_" fill="#F7F8F8" d="M33.16,18.98c-0.51,0.74-0.88,1.74-2.01,1.6c-0.18-0.02-0.23-1.03-0.33-1.59
		c0.55-0.65,1.22-0.67,1.96-0.39C32.9,18.73,33.03,18.85,33.16,18.98z"/>
	<path id="XMLID_33_" fill="#F5F6F6" d="M28.05,19.87c-0.26,0.3-0.5,0.82-0.88,0.95c-0.46,0.16-0.55-0.33-0.36-0.64
		c0.23-0.37,0.6-0.65,0.91-0.98C27.82,19.39,27.91,19.57,28.05,19.87z"/>
	<path id="XMLID_32_" fill="#F7F8F8" d="M32.99,17.5c0.8,0.01,1.65,0.13,1.57,1.12c-0.09,1.04-0.87,0.44-1.4,0.36
		c0,0-0.02-0.02-0.02-0.02c-0.23-0.18-0.39-0.41-0.46-0.69C32.68,17.96,32.78,17.71,32.99,17.5z"/>
	<path id="XMLID_31_" fill="#F7F8F8" d="M46.4,75.3c-0.87,0.51-1.88,0.13-1.81-0.54c0.1-1,0.89-0.13,1.36,0.02
		C46.14,74.83,46.25,75.1,46.4,75.3z"/>
	<path id="XMLID_30_" fill="#E4E4E4" d="M33.09,18.09c0.02,0.29,0.04,0.58,0.05,0.87c-0.78,0.01-1.55,0.02-2.33,0.04
		c-0.69-0.46-0.92-0.97-0.15-1.57C31.54,17.43,32.34,17.65,33.09,18.09z"/>
	<path id="XMLID_29_" fill="#252525" d="M33.09,18.09c-0.89,0.05-1.93,0.67-2.42-0.67c0.82-1.32,1.56-0.18,2.33,0.07
		C33.05,17.69,33.09,17.89,33.09,18.09z"/>
	<path id="XMLID_28_" fill="#040404" d="M87.67,63.39c0-1.64-0.05-3.27,0.01-4.91c0.1-2.96,1.5-4.71,4.69-4.81
		c3.34-0.1,5.08,1.61,5.2,4.73c0.13,3.39,0.1,6.8-0.09,10.18c-0.17,3.11-2.22,4.34-5.23,4.23c-2.95-0.11-4.45-1.68-4.56-4.53
		C87.63,66.66,87.68,65.03,87.67,63.39z"/>
	<path id="XMLID_27_" fill="#FAFAFA" d="M68.72,55.71c1.58-0.04,1.75-2.64,3.33-1.74c0.81,0.46,0.34,1.64-0.21,2.34
		C70.66,57.85,69.87,55.71,68.72,55.71z"/>
	<path id="XMLID_26_" fill="#F9F9FA" d="M104.77,84.28c-1.58,0.51-2.59,0.84-3.77,1.22C101.52,83.12,102.81,83.67,104.77,84.28z"/>
	<path id="XMLID_25_" fill="#F7F8F8" d="M89.57,85c-1.17,0.63-2.19,0.54-3.38,0.08C87.35,84.45,88.38,84.54,89.57,85z"/>
	<path id="XMLID_24_" fill="#F6F6F6" d="M81.13,43.46c-0.77,0.6-1.75,0.58-2-0.06c-0.38-0.99,0.5-0.81,1.08-0.58
		C80.54,42.95,80.8,43.23,81.13,43.46z"/>
	<path id="XMLID_23_" fill="#131313" d="M195.09,68.05c-0.46,1.66-0.48,3.47-1.65,4.9c-1.13,1.39-2.52,1.99-4.34,1.49
		c-1.4-0.38-2.18-1.33-2.34-2.64c-0.23-1.8,0.62-3.1,2.31-3.88c1.9-0.87,3.87-1.08,5.92-0.61c0.29,0.13,0.4,0.28,0.34,0.45
		C195.25,67.96,195.17,68.05,195.09,68.05z"/>
	<path id="XMLID_22_" fill="#FAFAFA" d="M209.97,74.96c0.25-1.38,0.49-2.77,0.74-4.15c0.24,0.03,0.47,0.06,0.71,0.09
		c-0.17,1.47-0.34,2.93-0.51,4.4C210.59,75.19,210.28,75.07,209.97,74.96z"/>
	<path id="XMLID_21_" fill="#F9F9FA" d="M168.79,74.22c0.28-1.64,0.84-2.59,2.19-2.61c0.24,0,2.18,0.94,0.49,1.34
		C170.43,73.19,169.97,74.04,168.79,74.22z"/>
	<path id="XMLID_20_" fill="#F7F8F8" d="M193.98,79.6c-1.75-0.99-2.18-1.64-1.77-2.59c0.07-0.15,0.47-0.34,0.59-0.28
		C193.85,77.3,193.51,78.25,193.98,79.6z"/>
	<path id="XMLID_19_" fill="#F6F6F6" d="M194.91,58.69l-0.08-0.27l0.21-0.19c0.85,0.14,1.92,0.1,1.77,1.35
		c-0.07,0.59-0.66,1.24-1.3,1.03C194.63,60.32,195.14,59.33,194.91,58.69z"/>
	<path id="XMLID_18_" fill="#F7F8F8" d="M173.16,52.88c0.72-1.21,1.6-1.3,2.63-1.43C175.32,52.88,174.36,52.78,173.16,52.88z"/>
	<path id="XMLID_17_" fill="#F7F8F8" d="M174.79,68.01c0-1.42,0.96-1.57,1.56-2.25C176.97,67.31,175.86,67.45,174.79,68.01z"/>
	<path id="XMLID_16_" fill="#F6F6F6" d="M195.09,68.05c-0.04-0.25-0.07-0.49-0.11-0.74c0.58-0.62,1.17-1.23,2.24-2.37
		C196.91,66.82,196.64,67.86,195.09,68.05z"/>
	<path id="XMLID_15_" fill="#F7F8F8" d="M141.21,56.01c-0.13,5.01-1.37,10.09,1.01,14.93c-2.79-1.13-2.75-3.96-3.32-6.12
		c-0.6-2.31-0.14-4.88,0.53-7.34c0,2.43,0,4.86,0,8.08C141.31,62.03,138.95,58.65,141.21,56.01z"/>
	<path id="XMLID_14_" fill="#F9F9FA" d="M139.18,71.36c-1.3-0.61-1.31-1.41-0.85-2.25c0.12-0.23,0.81-0.44,0.85-0.39
		C139.72,69.49,139.61,70.31,139.18,71.36z"/>
	<path id="XMLID_13_" fill="#F9F9FA" d="M154.34,45.22c0.23-1.46,0.36-2.36,1.65-2.5C156.51,44.01,155.52,44.39,154.34,45.22z"/>
	<path id="XMLID_12_" fill="#121212" d="M143.36,54.39c0.01,1.05,0.31,2.4-1.59,1.53C141.79,54.92,142.38,54.46,143.36,54.39z"/>
	<path id="XMLID_11_" fill="#F5F6F6" d="M126.99,78.53c-0.24,0.21-0.52,0.5-0.55,0.48c-0.26-0.21-0.59-0.43-0.67-0.71
		c-0.1-0.37,0.1-0.81,0.6-0.58C126.64,77.85,126.78,78.25,126.99,78.53z"/>
	<path id="XMLID_10_" fill="#FFFFFF" d="M151.98,86.56c-0.8,0.53-1.58,0.47-2.62,0.03C150.35,86.03,151.13,86,151.98,86.56z"/>
	<path id="XMLID_9_" fill="#FBFCFC" d="M224.53,68.58c0-9.47,0-18.93,0-28.4c0.13,0,0.26,0,0.39,0c0,9.5,0,19,0,28.49
		C224.79,68.64,224.66,68.61,224.53,68.58z"/>
	<path id="XMLID_8_" fill="#B7B7B8" d="M233.56,16.84c0.01,0.19,0.01,0.38,0.01,0.57c-0.73,0.22-1.45,0.43-2.18,0.65
		c-0.56-0.46-1.11-0.91-1.67-1.37c0.2-0.25,0.44-0.32,0.74-0.19C231.5,16.61,232.53,16.73,233.56,16.84z"/>
	<path id="XMLID_7_" fill="#040404" d="M182.57,58.24c-0.42,0.28-0.68,0.57-0.95,0.59c-0.51,0.04-0.99-0.19-0.82-0.79
		c0.06-0.21,0.56-0.42,0.86-0.41C181.91,57.65,182.16,57.96,182.57,58.24z"/>
	<path id="XMLID_6_" fill="#FFFFFF" d="M12.49,86.17c-0.08-0.16-0.17-0.31-0.22-0.48c-0.02-0.08,0.04-0.18,0.07-0.27
		c16.41,0,32.82,0,49.23,0c0,0.25,0,0.5,0,0.75C45.21,86.17,28.85,86.17,12.49,86.17z"/>
	<path id="XMLID_5_" fill="#FFFFFF" d="M171.13,45.39c0,1.7,0,3.4,0,5.1C170.59,48.77,169.75,47.04,171.13,45.39L171.13,45.39z"/>
	<path id="XMLID_4_" fill="#E5E5E5" d="M38.85,10.5c-0.96,0.15-1.68-0.08-1.84-1.14c-0.14-0.96,0.25-1.59,1.27-1.77
		C37.43,8.76,37.36,9.78,38.85,10.5z"/>
	<path id="XMLID_3_" fill="#010101" d="M244.37,21.22c0,16.03,0,32.07,0,48.25c-1.16-0.48-0.74-1.27-0.75-1.83
		c-0.03-14.42-0.03-28.85-0.01-43.27C243.61,23.28,243.29,22.08,244.37,21.22C244.37,21.22,244.37,21.22,244.37,21.22z"/>
	<path id="XMLID_2_" fill="#BABABA" d="M227.4,13.66c-0.27-0.2-0.53-0.4-0.8-0.6c2.85,0,5.69,0,8.54-0.01
		c-0.75,1.95-2.83,0.29-3.89,1.37C229.79,14.99,228.58,14.43,227.4,13.66z"/>
	<path id="XMLID_1_" fill="#F3F3F3" d="M227.4,13.66c1.37-0.15,2.67,0.04,3.85,0.77c-0.26,0.52-0.53,1.05-0.79,1.57
		c0.01,0.17,0.01,0.33,0.01,0.49c-0.25,0.07-0.49,0.14-0.74,0.19c-0.54-0.01-1.08-0.02-1.61-0.02
		C228.35,15.56,227.82,14.62,227.4,13.66z"/>
</g>
<g id="XMLID_89_">
</g>
<g id="XMLID_90_">
</g>
<g id="XMLID_91_">
</g>
<g id="XMLID_92_">
</g>
<g id="XMLID_93_">
</g>
<g id="XMLID_94_">
</g>
</svg>
